<svg xmlns="http://www.w3.org/2000/svg" viewBox="353 1209.008 165.581 120"><defs><style>.a{fill:#fff;}</style></defs><g transform="translate(-82.515 -273)"><g transform="translate(435.515 1482.008)"><g transform="translate(0 0)"><path class="a" d="M163.122,168.34h-8.67V80.4a9.928,9.928,0,0,0-9.928-9.928H20.282A9.928,9.928,0,0,0,10.353,80.4v87.94H2.459A2.459,2.459,0,0,0,0,170.8v5.431a14.242,14.242,0,0,0,14.242,14.242H106.89a2.459,2.459,0,1,0,0-4.918H14.242a9.323,9.323,0,0,1-9.323-9.323v-2.972H62.876a8.778,8.778,0,0,0,8.765,8.607h22.3a8.778,8.778,0,0,0,8.765-8.607h57.959v2.972a9.323,9.323,0,0,1-9.323,9.323H118.367a2.459,2.459,0,1,0,0,4.918H151.34a14.242,14.242,0,0,0,14.242-14.242V170.8A2.46,2.46,0,0,0,163.122,168.34Zm-69.182,8.606h-22.3a3.855,3.855,0,0,1-3.847-3.688H97.787A3.855,3.855,0,0,1,93.939,176.947Zm55.594-8.606H15.272V80.4a5.016,5.016,0,0,1,5.01-5.01H144.523a5.016,5.016,0,0,1,5.01,5.01Z" transform="translate(0 -70.472)"/></g><g transform="translate(19.534 9.181)"><g transform="translate(0 0)"><path class="a" d="M183.68,98.86H88.413a2.459,2.459,0,1,0,0,4.918h92.808v74.588H65.321V103.778H76.937a2.459,2.459,0,1,0,0-4.918H62.862a2.459,2.459,0,0,0-2.459,2.459v79.507a2.459,2.459,0,0,0,2.459,2.459H183.68a2.459,2.459,0,0,0,2.459-2.459V101.319A2.459,2.459,0,0,0,183.68,98.86Z" transform="translate(-60.403 -98.86)"/></g></g></g><g transform="translate(498.515 1464.522)"><g transform="translate(27.925 57.107)"><path class="a" d="M367.114,121.7l-9.308-9.862a1.509,1.509,0,1,0-2.2,2.072l8.331,8.825-8.331,8.826a1.51,1.51,0,0,0,2.2,2.073l9.308-9.862A1.51,1.51,0,0,0,367.114,121.7Z" transform="translate(-355.199 -111.361)"/></g><g transform="translate(0.001 57.107)"><path class="a" d="M11.916,131.556l-8.33-8.826,8.33-8.826a1.509,1.509,0,1,0-2.2-2.072L.412,121.695a1.51,1.51,0,0,0,0,2.072l9.309,9.862a1.51,1.51,0,0,0,2.2-2.073Z" transform="translate(-0.001 -111.36)"/></g><g transform="translate(16.403 52.478)"><path class="a" d="M214.8,52.495a1.511,1.511,0,0,0-1.72,1.264L208.654,82.74a1.51,1.51,0,0,0,1.264,1.72,1.556,1.556,0,0,0,.23.017,1.51,1.51,0,0,0,1.49-1.282l4.428-28.981A1.51,1.51,0,0,0,214.8,52.495Z" transform="translate(-208.636 -52.478)"/></g></g></g></svg>