<svg xmlns="http://www.w3.org/2000/svg" viewBox="1402.515 1210.008 165.581 120"><defs><style>.a,.b{fill:#fff;}.b{stroke:#fff;}</style></defs><g transform="translate(967 -272)"><g transform="translate(435.515 1482.008)"><g transform="translate(0 0)"><path class="a" d="M163.122,168.34h-8.67V80.4a9.928,9.928,0,0,0-9.928-9.928H20.282A9.928,9.928,0,0,0,10.353,80.4v87.94H2.459A2.459,2.459,0,0,0,0,170.8v5.431a14.242,14.242,0,0,0,14.242,14.242H106.89a2.459,2.459,0,1,0,0-4.918H14.242a9.323,9.323,0,0,1-9.323-9.323v-2.972H62.876a8.778,8.778,0,0,0,8.765,8.607h22.3a8.778,8.778,0,0,0,8.765-8.607h57.959v2.972a9.323,9.323,0,0,1-9.323,9.323H118.367a2.459,2.459,0,1,0,0,4.918H151.34a14.242,14.242,0,0,0,14.242-14.242V170.8A2.46,2.46,0,0,0,163.122,168.34Zm-69.182,8.606h-22.3a3.855,3.855,0,0,1-3.847-3.688H97.787A3.855,3.855,0,0,1,93.939,176.947Zm55.594-8.606H15.272V80.4a5.016,5.016,0,0,1,5.01-5.01H144.523a5.016,5.016,0,0,1,5.01,5.01Z" transform="translate(0 -70.472)"/></g><g transform="translate(19.534 9.181)"><g transform="translate(0 0)"><path class="a" d="M183.68,98.86H88.413a2.459,2.459,0,1,0,0,4.918h92.808v74.588H65.321V103.778H76.937a2.459,2.459,0,1,0,0-4.918H62.862a2.459,2.459,0,0,0-2.459,2.459v79.507a2.459,2.459,0,0,0,2.459,2.459H183.68a2.459,2.459,0,0,0,2.459-2.459V101.319A2.459,2.459,0,0,0,183.68,98.86Z" transform="translate(-60.403 -98.86)"/></g></g></g><g transform="translate(497 1514.174)"><path class="b" d="M42.95,13.754C42.323,6.842,37.43,1.827,31.308,1.827A11.574,11.574,0,0,0,21.392,7.54a11.153,11.153,0,0,0-9.678-5.714C5.592,1.826.7,6.841.072,13.753a12.3,12.3,0,0,0,.366,4.532,19.441,19.441,0,0,0,5.956,9.939l14.988,13.6,15.245-13.6a19.443,19.443,0,0,0,5.956-9.94A12.325,12.325,0,0,0,42.95,13.754Zm-1.977,4.153A17.78,17.78,0,0,1,35.521,27L21.392,39.6,7.506,27a17.792,17.792,0,0,1-5.457-9.093,10.746,10.746,0,0,1-.344-3.89l.012-.084c.538-6.056,4.742-10.452,10-10.452A9.7,9.7,0,0,1,20.626,9.7l.762,1.806L22.15,9.7a10,10,0,0,1,9.158-6.217c5.255,0,9.46,4.4,10.008,10.53A10.733,10.733,0,0,1,40.973,17.906Z" transform="translate(0)"/></g></g></svg>