<svg xmlns="http://www.w3.org/2000/svg" xmlns:xlink="http://www.w3.org/1999/xlink" viewBox="646 5063 33.591 64"><defs><style>.a{fill:url(#a);}</style><linearGradient id="a" x1="0.034" y1="1.058" x2="0.986" y2="0.06" gradientUnits="objectBoundingBox"><stop offset="0" stop-color="#0039d5" stop-opacity="0.741"/><stop offset="1" stop-color="#00dafd"/></linearGradient></defs><g transform="translate(-82 2379)"><path class="a" d="M147.13,13.91h5.832a2.269,2.269,0,0,0,2.266-2.266V2.273A2.269,2.269,0,0,0,152.961.007h-8.008c-.077,0-.21-.007-.4-.007a16.716,16.716,0,0,0-10.934,4.133A11.848,11.848,0,0,0,129.7,14.562v6.1h-5.8a2.269,2.269,0,0,0-2.266,2.266V33.012a2.269,2.269,0,0,0,2.266,2.266h5.461V61.734A2.269,2.269,0,0,0,131.63,64h11.421a2.269,2.269,0,0,0,2.266-2.266V35.409h6.469a2.265,2.265,0,0,0,2.251-2.007l1.176-10.209a2.266,2.266,0,0,0-2.251-2.525h-7.644V15.543C145.317,14.484,145.606,13.91,147.13,13.91Zm-3.087,9.307h8.6l-1.111,9.642h-7.49a1.275,1.275,0,0,0-1.275,1.275V61.45H131.914V34a1.275,1.275,0,0,0-1.275-1.275h-6.452V23.217h6.788a1.275,1.275,0,0,0,1.275-1.275V14.459a1.281,1.281,0,0,0-.019-.218,9.23,9.23,0,0,1,3.119-8.231,14.087,14.087,0,0,1,9.208-3.46c.179,0,.286,0,.305.006l.063,0h7.753v8.8H147.13c-2.732,0-4.363,1.563-4.363,4.182v6.4A1.275,1.275,0,0,0,144.042,23.217Z" transform="translate(606.363 2684)"/><path class="a" d="M215.458,343.713a1.275,1.275,0,0,0-1.275,1.275v.638a1.275,1.275,0,1,0,2.55,0v-.638A1.275,1.275,0,0,0,215.458,343.713Z" transform="translate(525.385 2383.251)"/><path class="a" d="M215.458,381.45a1.275,1.275,0,0,0-1.275,1.275v9.689a1.275,1.275,0,1,0,2.55,0v-9.689A1.275,1.275,0,0,0,215.458,381.45Z" transform="translate(525.385 2350.231)"/></g></svg>