<svg xmlns="http://www.w3.org/2000/svg" xmlns:xlink="http://www.w3.org/1999/xlink" viewBox="413 5063 72.412 64">
  <defs>
    <style>
      .cls-1 {
        fill: url(#linear-gradient);
      }
    </style>
    <linearGradient id="linear-gradient" x1="0.034" y1="1.058" x2="0.986" y2="0.06" gradientUnits="objectBoundingBox">
      <stop offset="0" stop-color="#0039d5" stop-opacity="0.741"/>
      <stop offset="1" stop-color="#00dafd"/>
    </linearGradient>
  </defs>
  <g id="github" transform="translate(413 5059.798)">
    <path id="Path_55" data-name="Path 55" class="cls-1" d="M20.119,29.909c-3.623,0-6.57,3.536-6.57,7.884s2.947,7.884,6.57,7.884,6.57-3.536,6.57-7.884S23.742,29.909,20.119,29.909Zm0,13.14c-2.173,0-3.942-2.357-3.942-5.256s1.769-5.256,3.942-5.256,3.942,2.357,3.942,5.256S22.294,43.049,20.119,43.049Z" transform="translate(4.254 8.385)"/>
    <path id="Path_56" data-name="Path 56" class="cls-1" d="M39.119,29.909c-3.623,0-6.57,3.536-6.57,7.884s2.947,7.884,6.57,7.884,6.57-3.536,6.57-7.884S42.742,29.909,39.119,29.909Zm0,13.14c-2.173,0-3.942-2.357-3.942-5.256s1.769-5.256,3.942-5.256,3.942,2.357,3.942,5.256S41.294,43.049,39.119,43.049Z" transform="translate(10.22 8.385)"/>
    <path id="Path_57" data-name="Path 57" class="cls-1" d="M49.12,24.909h-.2c-1.217.021-2.435.071-3.653.12-1.109.045-2.218.089-3.326.112l-1.925.041c-3.341.07-6.8.141-10.185.127-1.543-.007-3.087-.064-4.628-.122-2.1-.079-4.268-.163-6.42-.109a11.08,11.08,0,0,0-7.47,2.837h0c-3.273,3.008-4.627,7-4.136,12.2.712,7.546,3.758,11.405,10.514,13.317a56.216,56.216,0,0,0,16.191,1.683l1.6.008c.54,0,1.08.009,1.62.009.666,0,1.332-.007,2-.028a42.675,42.675,0,0,0,12.656-2.16A12.415,12.415,0,0,0,60,44.828a19.172,19.172,0,0,0,.892-8.754C60.252,31.409,56.182,24.909,49.12,24.909Zm8.385,19.1a9.782,9.782,0,0,1-6.595,6.449,40.134,40.134,0,0,1-11.886,2.018c-1.171.037-2.342.026-3.512.018l-1.641-.009A53.829,53.829,0,0,1,18.413,50.9c-5.672-1.6-8.007-4.6-8.614-11.033-.407-4.326.671-7.6,3.3-10.015a8.543,8.543,0,0,1,5.755-2.146c2.071-.047,4.2.03,6.257.108,1.572.059,3.144.118,4.716.125,3.427.016,6.894-.058,10.252-.129L42,27.77c1.126-.024,2.252-.07,3.378-.114,1.2-.049,2.394-.1,3.591-.117h.142c5.427,0,8.681,5.285,9.177,8.9A16.571,16.571,0,0,1,57.5,44.008Z" transform="translate(2.224 6.816)"/>
    <path id="Path_58" data-name="Path 58" class="cls-1" d="M68.151,23.382a3.706,3.706,0,0,1-1.028-2.859,31.415,31.415,0,0,0-.419-7.215l-.021-.155a34.312,34.312,0,0,0-2.453-8.96L63.8,3.2l-1.941.413a26.424,26.424,0,0,0-8.024,2.62c-1.687.975-3.366,2.014-4.989,3.018-1.087.673-2.173,1.346-3.267,2a.61.61,0,0,1-.21.064h0a54.358,54.358,0,0,0-18.146-.03,1.027,1.027,0,0,1-.522-.146c-.678-.406-1.339-.842-2-1.277-.766-.506-1.533-1.01-2.322-1.472C18.623,6.186,14.468,4.056,9.568,3.431l-.959-.124L8.1,4.415c-.1.2-.177.377-.244.558A42.048,42.048,0,0,0,5.326,16.911a21.326,21.326,0,0,0,.018,4.437c.071.5.012.6-.181.837a22.178,22.178,0,0,0-3.87,7.053c-1.4,4.265-1.656,8.994-.8,14.88A28.282,28.282,0,0,0,4.4,55.764c4.2,6.58,10.672,10.287,19.251,11.018,4.288.365,8.638.42,12.9.42q1.376,0,2.738-.005,1.8-.006,3.59,0a36.972,36.972,0,0,0,13.856-2.272A22.643,22.643,0,0,0,70.754,49.563,41.114,41.114,0,0,0,72.39,36.5,23.118,23.118,0,0,0,68.151,23.382Zm.085,25.432a19.891,19.891,0,0,1-12.45,13.66,33.9,33.9,0,0,1-12.893,2.091q-1.8,0-3.6,0c-5.073.014-10.319.029-15.412-.406-7.829-.666-13.475-3.876-17.259-9.811a25.809,25.809,0,0,1-3.528-10.61c-.807-5.545-.591-9.764.7-13.682a19.638,19.638,0,0,1,3.423-6.231,3.361,3.361,0,0,0,.732-2.851,20.079,20.079,0,0,1,.011-4.022A39.147,39.147,0,0,1,10.207,6.183a32.942,32.942,0,0,1,10.844,4.474c.749.439,1.477.92,2.2,1.4.692.457,1.386.913,2.1,1.339a3.518,3.518,0,0,0,2.3.484,51.731,51.731,0,0,1,17.274.028,3.086,3.086,0,0,0,2.008-.4c1.105-.664,2.2-1.342,3.3-2.021,1.632-1.01,3.263-2.02,4.922-2.977a23.539,23.539,0,0,1,7.071-2.286A32.1,32.1,0,0,1,64.077,13.5l.021.155a29.515,29.515,0,0,1,.406,6.609,6.275,6.275,0,0,0,1.518,4.657,20.288,20.288,0,0,1,3.74,11.658A38.419,38.419,0,0,1,68.236,48.814Z" transform="translate(0)"/>
  </g>
</svg>
