<svg xmlns="http://www.w3.org/2000/svg" xmlns:xlink="http://www.w3.org/1999/xlink" viewBox="512 5063 65.605 64">
  <defs>
    <style>
      .cls-1 {
        fill: url(#linear-gradient);
      }
    </style>
    <linearGradient id="linear-gradient" x1="0.034" y1="1.058" x2="0.986" y2="0.06" gradientUnits="objectBoundingBox">
      <stop offset="0" stop-color="#0039d5" stop-opacity="0.741"/>
      <stop offset="1" stop-color="#00dafd"/>
    </linearGradient>
  </defs>
  <g id="github-logo" transform="translate(512 5057.635)">
    <path id="Path_50" data-name="Path 50" class="cls-1" d="M61.2,21.7A32.66,32.66,0,0,0,49.267,9.764,32.084,32.084,0,0,0,32.8,5.365a32.087,32.087,0,0,0-16.465,4.4A32.656,32.656,0,0,0,4.4,21.7,32.086,32.086,0,0,0,0,38.166,31.878,31.878,0,0,0,6.257,57.45,32.126,32.126,0,0,0,22.423,69.3a1.912,1.912,0,0,0,1.708-.3,1.67,1.67,0,0,0,.555-1.281q0-.128-.022-2.306t-.022-3.8l-.982.17a12.532,12.532,0,0,1-2.371.15,18.061,18.061,0,0,1-2.968-.3,6.633,6.633,0,0,1-2.862-1.28,5.419,5.419,0,0,1-1.879-2.626l-.427-.983a10.672,10.672,0,0,0-1.345-2.178,5.154,5.154,0,0,0-1.858-1.623l-.3-.214a3.135,3.135,0,0,1-.555-.513,2.343,2.343,0,0,1-.384-.6q-.128-.3.213-.492a2.77,2.77,0,0,1,1.239-.191l.854.128a6.235,6.235,0,0,1,2.114,1.025,6.894,6.894,0,0,1,2.071,2.22,7.529,7.529,0,0,0,2.371,2.67,5.029,5.029,0,0,0,2.8.918,12.146,12.146,0,0,0,2.435-.213,8.495,8.495,0,0,0,1.922-.641,6.92,6.92,0,0,1,2.093-4.4,29.245,29.245,0,0,1-4.378-.769,17.431,17.431,0,0,1-4.014-1.667,11.5,11.5,0,0,1-3.438-2.861,13.752,13.752,0,0,1-2.242-4.485,21.326,21.326,0,0,1-.875-6.407,12.458,12.458,0,0,1,3.374-8.8,11.482,11.482,0,0,1,.3-8.712,5.985,5.985,0,0,1,3.673.576,25.68,25.68,0,0,1,3.566,1.645q1.132.682,1.815,1.153a30.846,30.846,0,0,1,16.4,0L42.626,21.3a22.986,22.986,0,0,1,3.929-1.88,5.6,5.6,0,0,1,3.461-.469,11.371,11.371,0,0,1,.341,8.712,12.46,12.46,0,0,1,3.375,8.8,21.565,21.565,0,0,1-.876,6.428,13.218,13.218,0,0,1-2.263,4.485,11.94,11.94,0,0,1-3.46,2.84,17.464,17.464,0,0,1-4.015,1.666,29.215,29.215,0,0,1-4.378.77q2.22,1.921,2.22,6.064v9.011A1.7,1.7,0,0,0,41.495,69a1.855,1.855,0,0,0,1.687.3A32.122,32.122,0,0,0,59.348,57.449,31.885,31.885,0,0,0,65.6,38.165,32.112,32.112,0,0,0,61.2,21.7Z"/>
  </g>
</svg>
