<svg xmlns="http://www.w3.org/2000/svg" viewBox="697.515 1209.008 165.581 120"><defs><style>.a,.b{fill:#fff;}.b{stroke:#fff;}</style></defs><g transform="translate(262 -273)"><g transform="translate(435.515 1482.008)"><g transform="translate(0 0)"><path class="a" d="M163.122,168.34h-8.67V80.4a9.928,9.928,0,0,0-9.928-9.928H20.282A9.928,9.928,0,0,0,10.353,80.4v87.94H2.459A2.459,2.459,0,0,0,0,170.8v5.431a14.242,14.242,0,0,0,14.242,14.242H106.89a2.459,2.459,0,1,0,0-4.918H14.242a9.323,9.323,0,0,1-9.323-9.323v-2.972H62.876a8.778,8.778,0,0,0,8.765,8.607h22.3a8.778,8.778,0,0,0,8.765-8.607h57.959v2.972a9.323,9.323,0,0,1-9.323,9.323H118.367a2.459,2.459,0,1,0,0,4.918H151.34a14.242,14.242,0,0,0,14.242-14.242V170.8A2.46,2.46,0,0,0,163.122,168.34Zm-69.182,8.606h-22.3a3.855,3.855,0,0,1-3.847-3.688H97.787A3.855,3.855,0,0,1,93.939,176.947Zm55.594-8.606H15.272V80.4a5.016,5.016,0,0,1,5.01-5.01H144.523a5.016,5.016,0,0,1,5.01,5.01Z" transform="translate(0 -70.472)"/></g><g transform="translate(19.534 9.181)"><g transform="translate(0 0)"><path class="a" d="M183.68,98.86H88.413a2.459,2.459,0,1,0,0,4.918h92.808v74.588H65.321V103.778H76.937a2.459,2.459,0,1,0,0-4.918H62.862a2.459,2.459,0,0,0-2.459,2.459v79.507a2.459,2.459,0,0,0,2.459,2.459H183.68a2.459,2.459,0,0,0,2.459-2.459V101.319A2.459,2.459,0,0,0,183.68,98.86Z" transform="translate(-60.403 -98.86)"/></g></g></g><g transform="translate(482.399 1510)"><path class="b" d="M58.113,179.03H56.057V149.174a2.523,2.523,0,0,0-2.52-2.52h-4.6a2.523,2.523,0,0,0-2.52,2.52V179.03H41.2V162.7a2.523,2.523,0,0,0-2.52-2.52h-4.6a2.523,2.523,0,0,0-2.52,2.52V179.03H26.342v-8.457a2.523,2.523,0,0,0-2.52-2.52h-4.6a2.523,2.523,0,0,0-2.52,2.52v8.457H14.539a.938.938,0,1,0,0,1.875H58.113a.938.938,0,1,0,0-1.875Zm-33.646,0H18.581v-8.457a.646.646,0,0,1,.645-.645h4.6a.646.646,0,0,1,.645.645v8.457Zm14.858,0H33.438V162.7a.646.646,0,0,1,.645-.645h4.6a.646.646,0,0,1,.645.645Zm14.858,0H48.3V149.174a.646.646,0,0,1,.645-.645h4.6a.646.646,0,0,1,.645.645V179.03Z" transform="translate(0 -132.905)"/><path class="b" d="M133.761.986A.934.934,0,0,0,132.778,0l-.045,0h-5.672a.938.938,0,0,0,0,1.875h3.5l-9.268,9.268-3.5-3.495a.937.937,0,0,0-1.326,0L99.621,24.5a.937.937,0,0,0,1.326,1.326l16.19-16.191,3.5,3.5a.938.938,0,0,0,1.326,0L131.889,3.2v3.17a.938.938,0,0,0,1.875,0V1.031C133.764,1.016,133.762,1,133.761.986Z" transform="translate(-77.707)"/><ellipse class="b" cx="0.937" cy="0.938" rx="0.937" ry="0.938" transform="translate(18.48 27.498)"/></g></g></svg>