<svg xmlns="http://www.w3.org/2000/svg" xmlns:xlink="http://www.w3.org/1999/xlink" viewBox="1210.541 5063 64.135 64"><defs><style>.a{fill:url(#a);}</style><linearGradient id="a" x1="0.034" y1="1.058" x2="0.986" y2="0.06" gradientUnits="objectBoundingBox"><stop offset="0" stop-color="#0039d5" stop-opacity="0.741"/><stop offset="1" stop-color="#00dafd"/></linearGradient></defs><g transform="translate(-82 2379)"><path class="a" d="M22.446,158.153H10.084a2.273,2.273,0,0,0-2.271,2.271v39.715a2.273,2.273,0,0,0,2.271,2.271H22.446a2.273,2.273,0,0,0,2.271-2.271V160.424A2.273,2.273,0,0,0,22.446,158.153Zm-.284,41.7H10.368V160.708H22.162Z" transform="translate(1285.707 2545.59)"/><path class="a" d="M16.1,3.3a9.424,9.424,0,1,0,2.764,6.663A9.367,9.367,0,0,0,16.1,3.3ZM9.435,16.841a6.869,6.869,0,1,1,6.873-6.874A6.885,6.885,0,0,1,9.435,16.841Z" transform="translate(1292.541 2683.46)"/><path class="a" d="M208.563,157.165c-2.7-4.573-7.482-6.892-14.223-6.892a16,16,0,0,0-9.6,3.011,2.274,2.274,0,0,0-2.258-2.024H170.647a2.273,2.273,0,0,0-2.271,2.271v39.715a2.273,2.273,0,0,0,2.271,2.271h12.335a2.273,2.273,0,0,0,2.271-2.271V173.6c0-6.661,1.805-7.923,5.137-7.923,3.257,0,4.149,1.776,4.149,8.264v19.309a2.273,2.273,0,0,0,2.271,2.271h12.34a2.273,2.273,0,0,0,2.271-2.271V171.462C211.42,167.06,211.095,161.458,208.563,157.165Zm.3,35.8H197.093V173.937c0-2.588-.072-5.284-.93-7.3-.995-2.336-2.938-3.52-5.774-3.52-6.778,0-7.692,5.3-7.692,10.479v19.365H170.931V153.815H182.2v2.3a1.278,1.278,0,0,0,2.219.864,13.165,13.165,0,0,1,9.921-4.146c12.764,0,14.524,8.956,14.524,18.633v21.5Z" transform="translate(1145.256 2552.483)"/><path class="a" d="M40.035,364.112a1.278,1.278,0,0,0-1.278,1.278v11.882a1.278,1.278,0,1,0,2.555,0V365.39A1.278,1.278,0,0,0,40.035,364.112Z" transform="translate(1258.639 2365.43)"/><path class="a" d="M40.035,321.275a1.278,1.278,0,0,0-1.278,1.278v1.15a1.278,1.278,0,1,0,2.555,0v-1.15A1.278,1.278,0,0,0,40.035,321.275Z" transform="translate(1258.639 2402.901)"/></g></svg>