<svg xmlns="http://www.w3.org/2000/svg" viewBox="1057.515 1209.008 165.581 120"><defs><style>.a,.b{fill:#fff;}.b{stroke:#fff;}</style></defs><g transform="translate(622 -273)"><g transform="translate(435.515 1482.008)"><g transform="translate(0 0)"><path class="a" d="M163.122,168.34h-8.67V80.4a9.928,9.928,0,0,0-9.928-9.928H20.282A9.928,9.928,0,0,0,10.353,80.4v87.94H2.459A2.459,2.459,0,0,0,0,170.8v5.431a14.242,14.242,0,0,0,14.242,14.242H106.89a2.459,2.459,0,1,0,0-4.918H14.242a9.323,9.323,0,0,1-9.323-9.323v-2.972H62.876a8.778,8.778,0,0,0,8.765,8.607h22.3a8.778,8.778,0,0,0,8.765-8.607h57.959v2.972a9.323,9.323,0,0,1-9.323,9.323H118.367a2.459,2.459,0,1,0,0,4.918H151.34a14.242,14.242,0,0,0,14.242-14.242V170.8A2.46,2.46,0,0,0,163.122,168.34Zm-69.182,8.606h-22.3a3.855,3.855,0,0,1-3.847-3.688H97.787A3.855,3.855,0,0,1,93.939,176.947Zm55.594-8.606H15.272V80.4a5.016,5.016,0,0,1,5.01-5.01H144.523a5.016,5.016,0,0,1,5.01,5.01Z" transform="translate(0 -70.472)"/></g><g transform="translate(19.534 9.181)"><g transform="translate(0 0)"><path class="a" d="M183.68,98.86H88.413a2.459,2.459,0,1,0,0,4.918h92.808v74.588H65.321V103.778H76.937a2.459,2.459,0,1,0,0-4.918H62.862a2.459,2.459,0,0,0-2.459,2.459v79.507a2.459,2.459,0,0,0,2.459,2.459H183.68a2.459,2.459,0,0,0,2.459-2.459V101.319A2.459,2.459,0,0,0,183.68,98.86Z" transform="translate(-60.403 -98.86)"/></g></g></g><path class="b" d="M50.587,12.521C48.723,7.2,40.4,3.206,30.182,2.508V2.4a2.4,2.4,0,0,0-2.4-2.4h-1.6a2.4,2.4,0,0,0-2.4,2.4v.108c-10.253.7-18.6,4.72-20.425,10.07a.8.8,0,0,0,1.086.987c4.9-2.21,11.817-3.594,19.339-3.9V13.6a.8.8,0,0,0,.8.8v14.03a3.2,3.2,0,0,0-1.6,2.77V44.8a3.2,3.2,0,0,0,3.2,3.2h1.6a3.2,3.2,0,0,0,3.2-3.2V31.2a3.2,3.2,0,0,0-1.6-2.77V14.4a.8.8,0,0,0,.8-.8V9.665c7.522.307,14.442,1.691,19.339,3.9a.8.8,0,0,0,.329.071h.007a.8.8,0,0,0,.731-1.116ZM25.382,2.4a.8.8,0,0,1,.8-.8h1.6a.8.8,0,0,1,.8.8v.027q-.794-.027-1.6-.027t-1.6.027Zm4,42.4a1.6,1.6,0,0,1-1.6,1.6h-1.6a1.6,1.6,0,0,1-1.6-1.6V31.2a1.6,1.6,0,0,1,1.6-1.6h1.6a1.6,1.6,0,0,1,1.6,1.6ZM27.782,28h-1.6V14.4h1.6Zm.8-15.2h-3.2V9.616q.8-.016,1.6-.016t1.6.016ZM26.982,8c-7.943,0-15.49,1.177-21.131,3.264A15.326,15.326,0,0,1,12.258,6.7,38.556,38.556,0,0,1,26.982,4,38.556,38.556,0,0,1,41.705,6.7a15.327,15.327,0,0,1,6.407,4.561C42.472,9.177,34.925,8,26.982,8Z" transform="translate(516.559 1500.95) rotate(45)"/></g></svg>