<svg xmlns="http://www.w3.org/2000/svg" xmlns:xlink="http://www.w3.org/1999/xlink" viewBox="752.737 5063 73.076 64"><defs><style>.a{fill:url(#a);}</style><linearGradient id="a" x1="0.034" y1="1.058" x2="0.986" y2="0.06" gradientUnits="objectBoundingBox"><stop offset="0" stop-color="#0039d5" stop-opacity="0.741"/><stop offset="1" stop-color="#00dafd"/></linearGradient></defs><g transform="translate(-82 2379)"><path class="a" d="M191.971,120.142l-30.054,18.51a4.5,4.5,0,0,0-1.958,5.042l3.25,11.418a2.212,2.212,0,0,0,2.141,1.621c.056,0,.112,0,.168-.006a2.214,2.214,0,0,0,2.051-1.929l.845-6.261a3.7,3.7,0,0,1,1.142-2.205l24.8-23.054a1.979,1.979,0,0,0-2.385-3.136Zm-24.4,24.058a6.618,6.618,0,0,0-2.044,3.947l-.41,3.037-2.359-8.288a1.575,1.575,0,0,1,.686-1.765l22.017-13.56Z" transform="translate(697.754 2576.722)"/><path class="a" d="M71.887,32.592a3.357,3.357,0,0,0-3.382-.572L2.152,57.617A3.362,3.362,0,0,0,2.186,63.9l15.5,5.785L23.73,89.132a3.359,3.359,0,0,0,5.333,1.607l9.012-7.347a1.233,1.233,0,0,1,1.5-.042l16.254,11.8A3.361,3.361,0,0,0,61.1,93.117L73.005,35.84A3.361,3.361,0,0,0,71.887,32.592Zm-1.732,2.656L58.248,92.525a.45.45,0,0,1-.7.27l-16.255-11.8a4.148,4.148,0,0,0-5.052.141l-9.014,7.348a.448.448,0,0,1-.711-.215L20.253,68.142a1.456,1.456,0,0,0-.881-.932L3.206,61.177a.451.451,0,0,1-.006-.844l66.352-25.6h0a.45.45,0,0,1,.6.512Z" transform="translate(834.737 2652.205)"/><path class="a" d="M415.552,251.941a1.455,1.455,0,0,0-1.731,1.114l-.221,1.019a1.456,1.456,0,1,0,2.845.618l.221-1.019A1.456,1.456,0,0,0,415.552,251.941Z" transform="translate(480.198 2463.509)"/><path class="a" d="M386.569,298.921a1.455,1.455,0,0,0-1.731,1.114l-3.348,15.422a1.456,1.456,0,1,0,2.845.618l3.348-15.422A1.456,1.456,0,0,0,386.569,298.921Z" transform="translate(507.725 2423.233)"/></g></svg>