<svg xmlns="http://www.w3.org/2000/svg" xmlns:xlink="http://www.w3.org/1999/xlink" viewBox="905.507 5063 77.484 64"><defs><style>.a{fill:url(#a);}</style><linearGradient id="a" x1="0.034" y1="1.058" x2="0.986" y2="0.06" gradientUnits="objectBoundingBox"><stop offset="0" stop-color="#0039d5" stop-opacity="0.741"/><stop offset="1" stop-color="#00dafd"/></linearGradient></defs><g transform="translate(-82 2379)"><path class="a" d="M76.845,52.457a2.757,2.757,0,0,0-2.386-.962,17.489,17.489,0,0,0,.91-2.284,2.744,2.744,0,0,0-4.013-3.2,26.8,26.8,0,0,1-7.137,2.944A17.52,17.52,0,0,0,35.079,62.066q0,.162,0,.324a39.531,39.531,0,0,1-25.2-14.125,2.744,2.744,0,0,0-4.5.352,17.542,17.542,0,0,0-.535,16.627,2.717,2.717,0,0,0-.578.247A2.757,2.757,0,0,0,2.9,67.808c0,.083,0,.167,0,.251a17.622,17.622,0,0,0,5.794,13A2.756,2.756,0,0,0,8.2,83.633a17.585,17.585,0,0,0,9.338,10.552A26.98,26.98,0,0,1,6.269,96.634a27.329,27.329,0,0,1-3.2-.187,2.743,2.743,0,0,0-1.8,5.034,44.611,44.611,0,0,0,24.124,7.071c16.837,0,27.38-7.952,33.26-14.624A46.255,46.255,0,0,0,70.16,63.78q0-.287,0-.577a32.619,32.619,0,0,0,6.869-7.456A2.756,2.756,0,0,0,76.845,52.457Zm-9.177,8.768a1.544,1.544,0,0,0-.614,1.28c.013.424.02.852.02,1.275a43.128,43.128,0,0,1-10.74,28.107c-5.459,6.194-15.26,13.577-30.945,13.577A41.523,41.523,0,0,1,4.176,99.65c.7.048,1.4.072,2.094.072a29.95,29.95,0,0,0,15.923-4.546,1.544,1.544,0,0,0-.481-2.814,14.48,14.48,0,0,1-10.383-9.129c.257.039.516.072.774.1a1.544,1.544,0,0,0,.944-2.862,14.531,14.531,0,0,1-7.06-12.022,15.143,15.143,0,0,0,1.868.791,1.544,1.544,0,0,0,1.681-2.459A14.453,14.453,0,0,1,7.813,50.606,42.609,42.609,0,0,0,36.619,65.668a1.543,1.543,0,0,0,1.666-1.733,14.807,14.807,0,0,1-.118-1.868A14.434,14.434,0,0,1,62.694,51.756a1.543,1.543,0,0,0,1.411.4,29.849,29.849,0,0,0,8.017-3.025,14.278,14.278,0,0,1-2.619,4.28,1.544,1.544,0,0,0,1.585,2.505c.911-.263,1.814-.572,2.7-.922A29.485,29.485,0,0,1,67.668,61.226Z" transform="translate(987.506 2639.448)"/><path class="a" d="M70.5,139.786c-.326-.243-.65-.493-.965-.743a1.544,1.544,0,1,0-1.921,2.416c.339.27.689.539,1.04.8a1.544,1.544,0,0,0,1.846-2.475Z" transform="translate(930.624 2559.542)"/><path class="a" d="M119.992,167.346a39.489,39.489,0,0,1-15.942-4.979,1.544,1.544,0,0,0-1.525,2.684,42.6,42.6,0,0,0,17.2,5.371c.046,0,.092.006.137.006a1.544,1.544,0,0,0,.133-3.082Z" transform="translate(901.161 2539.634)"/></g></svg>