<svg xmlns="http://www.w3.org/2000/svg" xmlns:xlink="http://www.w3.org/1999/xlink" viewBox="1057.771 5063 89.44 64"><defs><style>.a{fill:url(#a);}</style><linearGradient id="a" x1="0.034" y1="1.058" x2="0.986" y2="0.06" gradientUnits="objectBoundingBox"><stop offset="0" stop-color="#0039d5" stop-opacity="0.741"/><stop offset="1" stop-color="#00dafd"/></linearGradient></defs><g transform="translate(-82 2379)"><path class="a" d="M213.936,183.967l-18.017-9.355a4.552,4.552,0,0,0-6.65,4.039v18.772a4.552,4.552,0,0,0,6.66,4.034l18.017-9.416a4.552,4.552,0,0,0-.01-8.074Zm-1.64,4.916h0L194.278,198.3a1.006,1.006,0,0,1-.97-.03,1,1,0,0,1-.477-.846V178.651a.99.99,0,0,1,1.444-.877l18.017,9.356a.988.988,0,0,1,0,1.754Z" transform="translate(983.565 2527.59)"/><path class="a" d="M85.674,78.639h0c-3.479-4.136-9.6-5.823-21.117-5.823H24.881c-11.795,0-18.021,1.8-21.489,6.2C0,83.329,0,89.224,0,97.382V112.25c0,6.7.565,13.548,4.669,18.233,3.784,4.321,10.206,6.333,20.213,6.333H64.558c9.987,0,15.6-1.47,19.361-5.073,3.87-3.7,5.521-9.533,5.521-19.493V97.382C89.44,88.763,89.178,82.8,85.674,78.639Zm.2,33.611c0,8.893-1.322,13.953-4.422,16.919-3.031,2.9-7.926,4.084-16.9,4.084H24.881c-18.24,0-21.318-6.479-21.318-21V97.382c0-7.442,0-12.819,2.629-16.159,2.708-3.44,8.123-4.844,18.689-4.844H64.558c10.341,0,15.669,1.319,18.39,4.553h0c2.725,3.239,2.929,8.616,2.929,16.449Z" transform="translate(1139.771 2611.184)"/><path class="a" d="M325.68,387.57h-1.6a1.782,1.782,0,1,0,0,3.563h1.6a1.782,1.782,0,1,0,0-3.563Z" transform="translate(873.776 2351.413)"/><path class="a" d="M151.3,387.57h-28.15a1.782,1.782,0,1,0,0,3.563H151.3a1.782,1.782,0,1,0,0-3.563Z" transform="translate(1039.602 2351.413)"/></g></svg>